<?xml version="1.0" encoding="UTF-8" standalone="no"?>
<svg
   xmlns:dc="http://purl.org/dc/elements/1.1/"
   xmlns:cc="http://creativecommons.org/ns#"
   xmlns:rdf="http://www.w3.org/1999/02/22-rdf-syntax-ns#"
   xmlns:svg="http://www.w3.org/2000/svg"
   xmlns="http://www.w3.org/2000/svg"
   viewBox="0 0 1441.4625 399.53751"
   height="399.53751"
   width="1441.4625"
   xml:space="preserve"
   version="1.1"
   id="svg2"><metadata
     id="metadata8"><rdf:RDF><cc:Work
         rdf:about=""><dc:format>image/svg+xml</dc:format><dc:type
           rdf:resource="http://purl.org/dc/dcmitype/StillImage" /></cc:Work></rdf:RDF></metadata><defs
     id="defs6" /><g
     transform="matrix(1.25,0,0,-1.25,0,399.5375)"
     id="g10"><g
       transform="scale(0.1,0.1)"
       id="g12"><path
         id="path14"
         style="fill:#c91c2c;fill-opacity:1;fill-rule:nonzero;stroke:none"
         d="m 2168.94,804.082 c 0,-147.633 86.62,-221.422 259.89,-221.422 0.89,0 1.8,0 2.7,0 165.19,0 247.79,69.738 247.79,209.27 l 0,174.179 c -77.22,10.813 -143.19,16.653 -197.96,17.563 -207.38,0 -311.54,-59.883 -312.42,-179.59" /><path
         id="path16"
         style="fill:#c91c2c;fill-opacity:1;fill-rule:nonzero;stroke:none"
         d="m 804.145,1360.76 c -54.008,-61.85 -81.008,-170.43 -81.008,-325.72 0,-162.54 21.136,-279.899 63.461,-352.13 42.293,-72.238 116.117,-108.359 221.432,-108.359 167.42,0 251.14,49.668 251.14,148.988 l 0,706.991 c -64.81,14.43 -137.72,22.11 -218.74,23.01 -103.52,0 -182.278,-30.92 -236.285,-92.78" /><path
         id="path18"
         style="fill:#c91c2c;fill-opacity:1;fill-rule:nonzero;stroke:none"
         d="m 8621.86,1360.76 c -54.02,-61.85 -81.02,-170.43 -81.02,-325.72 0,-162.54 21.14,-279.899 63.46,-352.13 42.3,-72.238 116.12,-108.359 221.43,-108.359 167.43,0 251.15,49.668 251.15,148.988 l 0,706.991 c -64.82,14.43 -137.73,22.11 -218.75,23.01 -103.51,0 -182.27,-30.92 -236.27,-92.78" /><path
         id="path20"
         style="fill:#c91c2c;fill-opacity:1;fill-rule:nonzero;stroke:none"
         d="m 10818.1,875.648 -895.19,0 c 8.98,-119.726 44.77,-199.828 107.39,-240.339 62.5,-40.5 143.8,-60.758 243.7,-60.758 162,0 318.6,35.551 469.8,106.679 l 0,-267.339 c -153,-82.832 -326.3,-124.219 -519.8,-124.219 -61.2,0 -118.8,4.937 -172.8,14.84 -54.03,9.91 -110,30.59 -167.93,62.109 -57.94,31.508 -107.78,71.559 -149.52,120.18 -41.73,48.59 -76.01,115.879 -102.8,201.847 -26.79,85.942 -40.19,185.184 -40.19,297.723 0,221.439 49.28,398.319 147.84,530.619 98.57,132.33 254.96,198.49 469.2,198.49 202.5,0 355.8,-64.37 459.7,-193.08 104,-128.73 156,-287.14 156,-475.27 0,-77.419 -1.8,-134.571 -5.4,-171.482 z M 9409.02,754.789 c 0,-127.109 -47.93,-236.41 -143.8,-327.891 -95.85,-91.507 -242.36,-137.226 -439.49,-137.226 -45.91,0 -91.6,3.59 -137.04,10.816 -45.47,7.211 -98.56,26.133 -159.32,56.821 -60.77,30.64 -113.66,70.332 -158.66,119.023 -45.02,48.688 -83.27,120.18 -114.76,214.406 -31.53,94.242 -47.26,203.153 -47.26,326.682 0,224.61 54.89,396.62 164.73,516.12 109.8,119.49 267.78,179.24 473.91,179.24 73.8,0 150.33,-7.21 229.55,-21.6 l 0,530.63 332.14,0 0,-1467.021 z M 8027.49,311.27 l -332.15,0 0,303.789 332.15,0 0,-303.789 z m -1066.12,0 -456.37,544.121 -91.82,-93.161 0,-450.96 -332.15,0 0,1897.04 332.15,0 0,-1023.46 464.48,506.33 440.16,0 -600.84,-614.34 664.3,-765.57 -419.91,0 z m -1276.36,92.48 c -94.07,-76.07 -218.52,-114.078 -373.33,-114.078 -158.43,0 -304.26,37.437 -437.47,112.359 l 0,294.418 c 121.52,-81.25 251.59,-121.898 390.21,-121.898 95.41,0 157.52,11.058 186.34,33.191 28.79,22.11 43.2,55.289 43.2,99.567 0,40.621 -22.74,73.339 -68.18,98.179 -45.47,24.821 -100.38,46.481 -164.73,65.024 -64.37,18.508 -128.74,40.41 -193.08,65.679 -64.37,25.278 -119.28,67.049 -164.72,125.319 -45.47,58.22 -68.19,131.6 -68.19,220.09 0,138.77 48.82,245.32 146.5,319.66 97.65,74.35 219.41,111.52 365.23,111.52 136.81,0 262.38,-32.87 376.71,-98.56 l 0,-252.7 c -93.63,44.24 -199.83,66.37 -318.65,66.37 -158.44,0 -237.64,-38.85 -237.64,-116.5 0,-38.81 22.49,-69.3 67.51,-91.41 45,-22.13 99.92,-41.54 164.73,-58.26 64.81,-16.7 129.38,-39.3 193.75,-67.73 64.35,-28.44 119.26,-76.53 164.72,-144.24 45.45,-67.719 68.19,-153.969 68.19,-258.711 0,-115.449 -47.04,-211.207 -141.1,-287.289 z m -1123.77,-92.48 -332.15,0 0,857.38 c 0,36.9 -3.38,67.72 -10.13,92.48 -6.75,24.75 -20.25,50.65 -40.5,77.64 -20.26,27.01 -53.34,47.27 -99.25,60.76 -45.9,13.5 -104.87,20.26 -176.87,20.26 -81.02,0 -166.54,-8.11 -256.54,-24.3 l 0,-1084.22 -332.15,0 0,1250.29 c 202.53,100.8 413.6,151.22 633.24,151.22 192.58,0 343.11,-50.19 451.61,-150.55 108.48,-100.37 162.74,-241.02 162.74,-421.94 l 0,-829.02 z M 3011.47,754.141 c 0,-126.93 -47.45,-236.071 -142.3,-327.442 -94.85,-91.367 -240.74,-137.027 -437.64,-137.027 -203.69,0 -353.73,45.898 -450.14,137.707 -96.41,91.82 -144.6,203.422 -144.6,334.851 0,27.891 2.7,56.481 8.14,85.739 5.42,29.242 19.68,65.941 42.77,110.043 23.08,44.098 54.55,82.808 94.38,116.128 39.83,33.28 98.67,61.88 176.52,85.72 77.85,23.85 169.73,35.79 275.63,35.79 75.4,0 156.2,-6.31 242.39,-18.89 0,175.51 -97.41,263.28 -292.22,263.28 -155.5,0 -290.65,-23.42 -405.46,-70.21 l 0,272.74 c 127.43,46.8 268.86,70.21 424.32,70.21 196.88,0 347.47,-50.19 451.77,-150.55 104.29,-100.37 156.44,-245.53 156.44,-435.43 l 0,-372.659 z m -1420.15,1271.679 0,-1271.031 c 0,-127.109 -47.93,-236.41 -143.8,-327.891 -95.86,-91.507 -242.36,-137.226 -439.49,-137.226 -45.913,0 -91.604,3.59 -137.05,10.816 -45.46,7.211 -98.562,26.133 -159.32,56.821 -60.762,30.64 -113.652,70.332 -158.652,119.023 -45.02,48.688 -83.274,120.18 -114.766,214.406 -31.519,94.242 -47.262,203.153 -47.262,326.682 0,224.61 54.899,396.62 164.727,516.12 109.813,119.49 267.785,179.24 473.923,179.24 73.8,0 150.32,-7.21 229.54,-21.6 l 0,295.53 L 0,1838.44 0,0 11070.1,0 11531.7,3196.31 1591.32,2025.82" /><path
         id="path22"
         style="fill:#c91c2c;fill-opacity:1;fill-rule:nonzero;stroke:none"
         d="m 10199.7,1442.74 c -82.8,0 -147.4,-26.59 -193.8,-79.71 -46.32,-53.15 -74.01,-139.08 -82.99,-257.83 l 556.29,0 c -9,94.63 -37.1,174.57 -84.4,239.76 -47.3,65.18 -112.3,97.78 -195.1,97.78" /><path
         id="path24"
         style="fill:#c91c2c;fill-opacity:1;fill-rule:nonzero;stroke:none"
         d="m 1591.32,2491.81 -332.15,0 0,-505.1 332.15,39.11 0,465.99" /></g></g></svg>